<svg viewBox="0 0 125 19" fill="none" xmlns="http://www.w3.org/2000/svg">
<path d="M121.585 14.9855V0.348503H124.475V14.9855H121.585Z" fill="currentColor"/>
<path d="M114.946 15.2315C113.279 15.2315 112.021 14.7668 111.174 13.8375C110.327 12.9082 109.903 11.4595 109.903 9.4915C109.903 7.55084 110.347 6.11584 111.236 5.1865C112.124 4.2435 113.374 3.772 114.987 3.772C116.6 3.772 117.809 4.23667 118.616 5.166C119.436 6.08167 119.846 7.53717 119.846 9.5325V10.1065H112.753C112.807 11.2682 113.012 12.1018 113.368 12.6075C113.723 13.1132 114.249 13.366 114.946 13.366C115.493 13.366 115.923 13.2157 116.238 12.915C116.566 12.6143 116.764 12.1838 116.832 11.6235H119.723C119.627 12.7988 119.142 13.694 118.267 14.309C117.392 14.924 116.285 15.2315 114.946 15.2315ZM112.773 8.364H116.996C116.928 7.38 116.723 6.67617 116.381 6.2525C116.053 5.82884 115.575 5.617 114.946 5.617C113.689 5.617 112.964 6.53267 112.773 8.364Z" fill="currentColor"/>
<path d="M105.325 7.9335C105.325 6.55317 104.778 5.863 103.685 5.863C103.042 5.863 102.53 6.09534 102.147 6.56C101.778 7.02467 101.594 7.68067 101.594 8.528V14.9855H98.7032V5.8425L98.6622 4.018H101.532L101.594 5.4325H101.655C101.929 4.9405 102.332 4.54417 102.865 4.2435C103.398 3.92917 104.006 3.772 104.689 3.772C105.783 3.772 106.644 4.08634 107.272 4.715C107.901 5.33 108.215 6.2525 108.215 7.4825V14.9855H105.325V7.9335Z" fill="currentColor"/>
<path d="M93.6533 7.9335C93.6533 6.55317 93.1066 5.863 92.0133 5.863C91.371 5.863 90.8585 6.09534 90.4758 6.56C90.1068 7.02467 89.9223 7.68067 89.9223 8.528V14.9855H87.0318V5.8425L86.9908 4.018H89.8608L89.9223 5.4325H89.9838C90.2571 4.9405 90.6603 4.54417 91.1933 4.2435C91.7263 3.92917 92.3345 3.772 93.0178 3.772C94.1111 3.772 94.9721 4.08634 95.6008 4.715C96.2295 5.33 96.5438 6.2525 96.5438 7.4825V14.9855H93.6533V7.9335Z" fill="currentColor"/>
<path d="M78.8425 15.2315C77.7355 15.2315 76.8814 14.924 76.28 14.309C75.6924 13.6803 75.3985 12.7442 75.3985 11.5005V4.01801H78.289V10.988C78.289 12.423 78.8015 13.1405 79.8265 13.1405C80.4552 13.1405 80.954 12.9082 81.323 12.4435C81.692 11.9788 81.8765 11.2955 81.8765 10.3935V4.01801H84.7875V13.243L84.808 14.9855H81.938L81.8765 13.571H81.815C81.5554 14.0767 81.1659 14.4798 80.6465 14.7805C80.1409 15.0812 79.5395 15.2315 78.8425 15.2315Z" fill="currentColor"/>
<path d="M69.1516 3.2185C69.1516 2.20717 69.4045 1.476 69.9101 1.025C70.4295 0.574003 71.2426 0.348503 72.3496 0.348503H74.1536V2.296H72.9441C72.3428 2.296 72.0421 2.6035 72.0421 3.2185V4.018H73.9486V6.0065H72.0421V14.9855H69.1516V6.0065H67.6346V4.018H69.1516V3.2185Z" fill="currentColor"/>
<path d="M56.5826 18.655V6.683L56.5211 4.018H59.3911L59.4526 5.3095H59.4731C59.7191 4.8585 60.1017 4.4895 60.6211 4.2025C61.1541 3.9155 61.7281 3.772 62.3431 3.772C63.6961 3.772 64.7552 4.2435 65.5206 5.1865C66.2996 6.11584 66.6891 7.55767 66.6891 9.512C66.6891 11.48 66.2791 12.9287 65.4591 13.858C64.6391 14.7737 63.5731 15.2315 62.2611 15.2315C61.6597 15.2315 61.1062 15.0948 60.6006 14.8215C60.0949 14.5482 59.7259 14.2065 59.4936 13.7965H59.4731V18.655H56.5826ZM61.5231 13.079C63.0264 13.079 63.7781 11.89 63.7781 9.512C63.7781 7.12034 63.0264 5.9245 61.5231 5.9245C60.0471 5.9245 59.3091 7.12034 59.3091 9.512C59.3091 11.89 60.0471 13.079 61.5231 13.079Z" fill="currentColor"/>
<path d="M49.6643 15.2315C46.2476 15.2315 44.5393 13.3182 44.5393 9.4915C44.5393 5.6785 46.2476 3.772 49.6643 3.772C53.0673 3.772 54.7688 5.6785 54.7688 9.4915C54.7688 11.4322 54.3246 12.874 53.4363 13.817C52.5616 14.76 51.3043 15.2315 49.6643 15.2315ZM49.6643 13.284C50.4023 13.284 50.9558 12.9902 51.3248 12.4025C51.6938 11.8012 51.8783 10.8308 51.8783 9.4915C51.8783 8.15217 51.6938 7.18867 51.3248 6.601C50.9558 6.01334 50.4023 5.7195 49.6643 5.7195C48.9126 5.7195 48.3523 6.01334 47.9833 6.601C47.628 7.175 47.4503 8.1385 47.4503 9.4915C47.4503 10.8445 47.628 11.8148 47.9833 12.4025C48.3523 12.9902 48.9126 13.284 49.6643 13.284Z" fill="currentColor"/>
<path d="M33.3184 14.9855V0.348503H36.2089V5.4325H36.2704C36.5301 4.9405 36.9333 4.54417 37.4799 4.2435C38.0266 3.92917 38.6416 3.772 39.3249 3.772C40.4046 3.772 41.2588 4.08634 41.8874 4.715C42.5161 5.33 42.8304 6.2525 42.8304 7.4825V14.9855H39.9399V7.9335C39.9399 6.55317 39.4001 5.863 38.3204 5.863C37.6644 5.863 37.1451 6.09534 36.7624 6.56C36.3934 7.02467 36.2089 7.68067 36.2089 8.528V14.9855H33.3184Z" fill="currentColor"/>
<path d="M25.986 15.334C22.3917 15.334 20.5672 13.7623 20.5125 10.619H23.567C23.649 12.341 24.4963 13.202 26.109 13.202C26.8607 13.202 27.4552 13.0175 27.8925 12.6485C28.3435 12.2795 28.569 11.7807 28.569 11.152C28.569 10.5507 28.3913 10.1133 28.036 9.84C27.6943 9.553 27.134 9.307 26.355 9.102L24.9815 8.7535C23.5465 8.39817 22.4805 7.89933 21.7835 7.257C21.1002 6.601 20.7585 5.6785 20.7585 4.4895C20.7585 3.12283 21.2642 2.03633 22.2755 1.23C23.2868 0.41 24.5783 0 26.15 0C27.7627 0 29.0268 0.3485 29.9425 1.0455C30.8718 1.7425 31.3638 2.82217 31.4185 4.2845H28.364C28.241 2.8495 27.4757 2.132 26.068 2.132C25.3573 2.132 24.8038 2.30967 24.4075 2.665C24.0248 3.00667 23.8335 3.485 23.8335 4.1C23.8335 5.02933 24.4895 5.65117 25.8015 5.9655L27.175 6.314C28.733 6.71033 29.8742 7.216 30.5985 7.831C31.3228 8.446 31.685 9.40267 31.685 10.701C31.685 12.136 31.1452 13.2703 30.0655 14.104C28.9858 14.924 27.626 15.334 25.986 15.334Z" fill="currentColor"/>
<path d="M0 0.350502H16.1V3.27778H0L0 0.350502Z" fill="currentColor"/>
<path d="M1.82954 6.20506H14.2704V9.13234H1.82954V6.20506Z" fill="currentColor"/>
<path d="M4.75683 12.0596H11.3432V14.9869H4.75683V12.0596Z" fill="currentColor"/>
</svg>
